<svg xmlns="http://www.w3.org/2000/svg" width="128" height="128" viewBox="0 0 128 128">
    <g fill="none" fill-rule="evenodd">
        <path fill="#D255AA" d="M8.752 71.072c0-.501.25-.933.684-1.185.215-.124.445-.187.684-.187.235 0 .472.064.683.186L31.036 81.59a2.805 2.805 0 0 1 1.397 2.423v23.403c0 .501-.249.933-.683 1.185a1.34 1.34 0 0 1-1.369.001L10.15 96.9a2.808 2.808 0 0 1-1.397-2.425V71.072z"/>
        <path fill="#00C4FF" d="M36.517 17.546l52.63 30.437a2.808 2.808 0 0 1 1.396 2.423v27.266c0 .996-.536 1.925-1.395 2.424L65.572 93.729c-.846.49-1.949.489-2.794 0l-52.63-30.436a2.807 2.807 0 0 1-1.397-2.424V33.603c0-.997.536-1.926 1.398-2.424l23.573-13.633a2.8 2.8 0 0 1 2.795 0"/>
        <path fill="#FFD73F" d="M62.777.744a2.793 2.793 0 0 1 2.795 0l20.69 11.965c.337.195.531.531.531.922 0 .39-.194.726-.531.92l-20.69 11.966c-.862.499-1.932.499-2.793.001L42.086 14.552a1.04 1.04 0 0 1-.53-.923c0-.389.194-.725.533-.923L62.777.744z"/>
        <path fill="#FF7451" d="M119.597 60.87c0 .996-.535 1.926-1.397 2.424L96.772 75.686a.531.531 0 0 1-.572 0c-.284-.164-.284-.414-.284-.495V50.406a8.21 8.21 0 0 0-4.085-7.086L70.404 30.928a.526.526 0 0 1-.286-.496c0-.328.215-.453.283-.493l21.43-12.393a2.803 2.803 0 0 1 2.795 0l23.818 13.773a2.318 2.318 0 0 1 1.153 2.002V60.87z"/>
        <path fill="#6BAE28" d="M37.806 86.514c0-.083 0-.338.29-.505a.63.63 0 0 1 .302-.086c.09 0 .182.029.277.082L60.09 98.391a8.205 8.205 0 0 0 8.167-.002l50.466-29.184c.072-.042.29-.167.582.001.291.168.291.421.291.506v24.763c0 .997-.535 1.927-1.397 2.425L65.57 127.335a2.79 2.79 0 0 1-2.793 0l-23.574-13.633a2.807 2.807 0 0 1-1.398-2.424V86.514z"/>
    </g>
</svg>
